<?xml version="1.0" standalone="no"?>
<!DOCTYPE svg PUBLIC "-//W3C//DTD SVG 20010904//EN"
 "http://www.w3.org/TR/2001/REC-SVG-20010904/DTD/svg10.dtd">
<svg version="1.0" xmlns="http://www.w3.org/2000/svg"
 width="2000.000000pt" height="2250.000000pt" viewBox="0 0 2000.000000 2250.000000"
 preserveAspectRatio="xMidYMid meet">

<g transform="translate(0.000000,2250.000000) scale(0.100000,-0.100000)"
fill="#000000" stroke="none">
<path d="M9725 21433 c-66 -25 -264 -99 -440 -164 -647 -242 -1044 -434 -1329
-645 -48 -36 -91 -63 -94 -59 -3 3 2 79 12 168 26 231 12 274 -84 265 -63 -6
-84 -22 -335 -261 -208 -197 -305 -277 -395 -322 -81 -41 -114 -46 -195 -29
-81 17 -255 20 -335 4 -380 -73 -746 -394 -881 -772 l-31 -87 -57 -8 c-85 -12
-300 -6 -446 11 -242 29 -381 19 -491 -35 -152 -76 -797 -672 -1555 -1435
-423 -427 -402 -397 -514 -723 -76 -223 -103 -281 -177 -379 -138 -183 -312
-358 -832 -837 -602 -554 -850 -909 -1057 -1515 -133 -389 -206 -741 -339
-1635 -61 -409 -108 -695 -134 -823 l-15 -67 110 -207 c375 -710 605 -1326
723 -1943 57 -301 58 -345 2 -401 -41 -41 -99 -51 -175 -31 l-53 15 5 -287 c5
-297 15 -388 58 -526 30 -98 158 -396 524 -1220 371 -836 514 -1171 644 -1510
102 -264 217 -588 257 -722 l28 -93 36 0 c55 0 150 -52 209 -115 57 -60 114
-170 131 -249 5 -28 22 -109 36 -181 69 -347 204 -678 372 -915 137 -193 351
-376 543 -464 202 -93 375 -122 649 -110 374 16 618 -46 804 -204 171 -144
331 -234 535 -302 193 -64 301 -83 506 -86 l180 -3 95 -52 c52 -28 268 -140
480 -249 561 -288 736 -385 985 -549 116 -76 135 -85 175 -85 56 1 103 25 127
64 9 16 21 30 25 30 19 0 28 -59 28 -186 0 -134 0 -134 23 -129 43 9 525 65
732 85 949 89 1668 53 2238 -112 l108 -31 111 28 c321 79 595 16 1036 -238
l132 -77 113 -6 c105 -6 114 -5 140 16 33 26 36 67 8 140 l-19 49 92 45 c50
25 138 58 196 75 166 47 549 123 594 118 47 -7 94 -43 164 -128 152 -185 209
-234 295 -253 l27 -6 0 163 c0 197 13 254 70 308 59 56 104 64 337 61 l201 -3
-1 173 c-2 213 4 231 118 340 43 40 162 165 265 278 250 274 397 413 526 499
58 39 109 71 113 71 4 0 77 -76 162 -169 169 -186 176 -189 166 -77 -7 72 -25
131 -74 232 -26 55 -59 100 -132 177 -53 57 -103 118 -111 136 -12 29 -11 34
8 53 11 12 96 46 199 80 270 90 365 90 495 0 82 -58 84 -59 60 -21 -33 48 -54
98 -59 139 -7 48 29 90 110 130 79 39 151 50 307 49 152 0 208 14 273 72 77
67 137 229 137 369 l0 51 198 237 c368 440 478 585 697 917 394 597 731 1260
1030 2030 42 110 80 205 83 210 23 38 -205 -142 -327 -260 -141 -136 -253
-271 -373 -450 -110 -165 -145 -207 -194 -230 -58 -27 -132 -15 -186 33 -21
18 -14 36 -98 -236 -35 -111 -65 -201 -67 -199 -1 2 3 82 11 178 8 96 13 175
11 177 -2 2 -86 -61 -187 -140 -1227 -964 -2460 -1857 -3404 -2466 -288 -186
-379 -221 -488 -191 -51 14 -134 93 -166 158 -14 28 -27 51 -30 51 -3 0 -57
-45 -120 -101 -127 -110 -172 -139 -223 -139 -53 0 -80 36 -85 115 -2 35 1 78
6 95 l11 31 -37 -8 c-20 -4 -66 -6 -102 -3 -36 2 -96 5 -133 5 -66 0 -70 -1
-102 -36 -18 -20 -43 -64 -55 -97 -24 -64 -51 -98 -72 -89 -7 2 -31 36 -52 75
-66 120 -76 112 -105 -88 -31 -208 -34 -219 -42 -148 -11 101 -54 134 -114 86
-34 -27 -105 -134 -105 -160 0 -10 -3 -18 -7 -18 -5 0 -44 55 -88 121 -44 67
-117 160 -162 208 l-82 86 29 -71 c53 -128 63 -258 22 -272 -8 -2 -33 17 -58
43 -44 48 -44 48 -44 19 0 -15 -5 -79 -11 -141 l-12 -113 -51 -29 c-28 -16
-89 -68 -136 -115 -47 -48 -104 -100 -128 -116 -47 -31 -40 -30 -322 -55 -311
-28 -640 -84 -912 -155 l-112 -29 -180 45 c-692 171 -1461 294 -2176 349 -325
25 -464 44 -660 91 -362 87 -687 225 -1087 462 -62 37 -113 69 -113 73 0 3 17
11 38 17 121 38 225 186 208 296 -10 59 -15 61 -46 12 -49 -77 -139 -113 -402
-162 l-98 -18 -192 190 c-246 241 -423 408 -1114 1050 -995 926 -1453 1382
-1919 1914 -231 264 -355 495 -600 1120 -94 240 -198 486 -241 572 l-34 68
-43 -44 c-62 -66 -114 -72 -174 -22 -51 43 -123 201 -123 270 0 44 44 131 76
153 47 30 108 20 180 -32 19 -14 14 28 -83 702 -89 619 -103 731 -99 813 5
118 25 177 138 405 46 94 91 195 101 225 12 37 62 456 153 1280 140 1276 159
1416 239 1740 220 886 653 1663 1370 2455 177 195 598 610 935 920 173 160
384 355 470 434 233 217 320 278 710 501 118 67 220 126 225 130 13 11 602
360 790 470 903 525 1570 787 2300 905 330 53 416 59 950 61 552 2 591 5 693
59 85 44 128 96 164 195 21 61 23 79 22 287 0 122 -3 225 -6 228 -3 3 -18 0
-34 -6 -16 -6 -59 -11 -96 -12 -91 0 -160 35 -303 154 -60 50 -132 107 -160
125 -51 34 -170 84 -215 90 -14 1 -79 -18 -145 -43z m-8051 -12989 c44 -45 87
-127 180 -347 91 -213 127 -286 173 -350 19 -27 32 -51 29 -54 -11 -11 -174
85 -216 127 -62 61 -81 106 -96 226 -16 122 -46 205 -117 328 -28 50 -53 94
-55 98 -2 4 12 8 32 8 27 0 43 -8 70 -36z m-276 -1 c14 -12 40 -84 81 -218 34
-111 61 -205 61 -209 0 -5 -48 52 -106 125 -58 74 -120 148 -136 166 -25 26
-29 36 -23 62 7 31 65 91 89 91 8 0 23 -8 34 -17z"/>
<path d="M12965 20820 c-287 -6 -310 -11 -387 -79 -42 -36 -93 -113 -103 -153
-4 -16 -10 -28 -13 -28 -3 0 -34 12 -70 26 -89 35 -178 43 -392 32 -207 -10
-285 -27 -363 -79 -132 -87 -202 -246 -177 -401 17 -106 69 -197 175 -303 243
-243 612 -410 1051 -474 39 -6 143 -15 232 -21 l162 -10 153 -87 c709 -403
1293 -792 2592 -1724 710 -510 903 -645 948 -664 98 -41 258 -4 472 110 67 36
131 65 142 65 18 0 19 -8 19 -182 0 -205 13 -303 69 -498 36 -125 195 -541
244 -638 66 -131 188 -255 361 -368 259 -169 382 -404 383 -729 0 -149 -19
-272 -62 -406 l-30 -92 71 -141 c134 -267 268 -487 402 -656 97 -123 280 -305
358 -356 89 -58 102 -82 104 -209 1 -79 6 -111 24 -153 54 -125 142 -123 247
6 41 50 43 51 43 25 0 -15 -13 -138 -29 -273 -50 -409 -55 -486 -55 -720 0
-213 7 -304 35 -430 12 -52 13 -54 20 -25 4 17 15 120 24 230 56 679 176 1299
337 1738 22 60 37 111 35 114 -10 9 -83 -36 -118 -74 -21 -21 -56 -69 -79
-108 -66 -110 -117 -155 -175 -155 l-25 0 0 259 c0 491 -32 869 -155 1816 -24
187 -52 405 -61 485 l-17 145 -1018 1630 c-1118 1788 -1062 1706 -1344 1990
-633 636 -1457 1116 -2425 1409 -525 159 -713 177 -1605 156z"/>
<path d="M9480 16854 c-513 -73 -1025 -295 -1602 -696 -699 -486 -1315 -1172
-1647 -1836 -376 -750 -343 -1441 96 -2039 124 -170 416 -476 618 -648 401
-343 1021 -717 2275 -1375 1061 -556 1645 -907 2041 -1224 277 -222 465 -487
536 -753 34 -129 38 -344 9 -468 -67 -292 -246 -529 -544 -723 -162 -104 -361
-178 -597 -219 -155 -27 -571 -24 -760 5 -488 76 -952 264 -1420 575 -679 452
-1246 1069 -1743 1897 l-99 165 -387 3 -386 2 2 -1571 3 -1572 90 -39 c658
-286 2219 -585 3605 -690 91 -7 327 -12 525 -13 335 0 369 2 490 23 501 91
985 304 1550 682 522 349 1014 810 1379 1289 596 783 762 1526 492 2194 -97
239 -244 451 -486 700 -504 520 -964 807 -2830 1767 -928 478 -1576 878 -1925
1188 -388 345 -554 775 -470 1217 38 201 130 377 280 534 204 215 438 335 775
397 137 26 522 26 673 1 648 -109 1205 -429 1792 -1028 386 -394 716 -852
1040 -1441 l97 -178 384 0 384 0 0 1571 0 1570 -92 44 c-607 287 -1976 580
-3178 681 -272 22 -836 27 -970 8z"/>
</g>
</svg>
